<?xml version="1.0" encoding="UTF-8"?>
<svg id="_レイヤー_2" data-name="レイヤー 2" xmlns="http://www.w3.org/2000/svg" viewBox="0 0 220.76 224.75">
  <defs>
    <style>
      .cls-1 {
        fill: #f7f8f8;
        stroke-width: 0px;
      }
    </style>
  </defs>
  <g id="_トップ画面" data-name="トップ画面">
    <g>
      <path class="cls-1" d="m212.01,89.05c.73,1.63,1.49,3.25,2.14,4.91,4.25,10.74,6.15,22.11,6.58,33.37.31,11.28-1.38,22.54-5.01,33.16-3.76,10.57-9.41,20.45-16.65,29.12-7.25,8.64-16.02,16.18-26.07,21.88-10.08,5.67-21.31,9.32-32.81,11.61-23.17,4.18-48.17.39-69.31-10.69l.1-.19c21.43,10.33,46.06,13.77,68.87,9.46,11.31-2.39,22.31-6.1,32.13-11.77,9.75-5.73,18.57-12.86,25.78-21.34,7.23-8.45,12.92-18.13,16.77-28.52,3.72-10.44,5.54-21.56,5.38-32.75-.05-12.83-3.16-25.63-8.56-37.58.23-.22.48-.43.68-.68Z"/>
      <g>
        <path class="cls-1" d="m176.85,34.51c.32-1.42-.96-1.96-2.12-2.55-.4-.21-.69-.42-.31-.94,1.03-1.53-.69-3.05-1.08-4.5-2.24-1.56-5.72-2.37-7.04.74-.84,1.33-3.12,3.3-4.62,2.37-.39-.44-.02-.74.19-1.08,1.76-2.12,2.43-5.65,5.19-6.62.94-.3,2.44-.75,2.02-2.03-.22-.72-.39-1.56-1.48-1.46-.69-.09-.77-1.12-1.62-.89-1.11.39-3.24,2.81-2.42,4.06,2.08,2.96-5.08,10.29-8.3,10.33-3.13.45-8.95,2.34-11.83,1.23.19-.16.38-.33.55-.52,2.67-1.57,5.19-5.64,7.86-4.77.66.23,1.41-.26,2,.33,2.44,1.6,3.73-.55,4.86-2.5,1.41-1.41.23-3.17-.85-4.27-.93-1.91-2.41-1.19-3.93-1.1-1.61-1.04-.39-4.74,1.34-5.18,1.25-.32,1.76-2.85.15-2.97-.61-.09-1.17-.15-1.69-.61-1.11-.99-3.42,1.49-2.2,2.5,1.85,2.03,1.43,5.43-1.19,6.51-2.12,1.25-1.67,3.27-1.25,5.3-2.59,6.64-3.95.95-3.26-2.86.37-1.58.22-3.09-.32-4.53.03,0,.06-.02.09-.04.01-.02.03-.03.04-.05.03-.04.04-.08.04-.12,0-.03,0-.05,0-.08,0-.03,0-.06-.01-.1,0-.03-.02-.06-.04-.08-.02-.03-.04-.04-.07-.06,0,0,0,0,0,0,.08-.07.12-.19.07-.28-.26-.43-.47-.9-.78-1.3-.27-.35-.61-.62-.99-.82-.07-.04-.15-.08-.23-.11,0,0-.02,0-.03-.01,0,0,0,0,0,0-1.19-.49-3.51-.51-4.09-.27-1.39.74-1.36,2.09-1.36,3.47-1.05,1.39-2.03,3.58-3.9,3.91-.66-.09.63-2.7,1.23-2.94,1.25-.77.12-3.26-1.35-3-.92-1.77-6.79.96-4.64,2.67.61.55,1.2,1.21,1.93,1.5,3.72,2.3-1.24,5.32-2.43,7.79-.08.06-.15.11-.23.17-.37.26-.76.49-1.15.72-.51.07-.97.32-1.43.6-2.98,2.16-6.78,3.31-9.23,6.1-2.18.45-4.3,1.91-6.56,1.46,1.11-.7.8-2.88,2.01-3.14.43.06.82.02.96-.49,3.22-1.45-2.8-4.43-2.54-.72,1.05,5.1-5.26,5.68-8.57,7.56.17.02.38-.06.53-.03-.02.01-.04.02-.05.03-.01,0-.03,0-.04,0-.06,0-.12,0-.17,0-.05,0-.1.02-.15.04,0,0,0,0,0,0-.03-.01-.06-.02-.09-.03-1.44.48-2.72,1.57-4.17,1.9-3.39,1.01-5.18,4.4-8.51,5.64-4.82,1.89-10.22,1.45-15.03,3.62,1.28-2.3,3.06-4.29,4.64-6.39.03,0,.06-.03.1-.05.87-.78,1.53-1.74,2.34-2.58.9-.93,2-1.68,3.03-2.46,1.02-.77,2.06-1.51,3.1-2.24.91-.64,1.93-1.12,2.79-1.82,1.19-.63,2.39-1.24,3.54-1.92.08.08.2.11.31.02.74-.62,1.66-.92,2.5-1.36.96-.5,1.91-.98,2.89-1.44,1.76-.82,3.37-2.01,5.32-2.34.12-.02.18-.11.19-.2,0,0,0,0,0,0,4.7-.91,12.78,1.9,14.88-3.77,2.74-5.23,4.49-12.16,9.91-15.19,10.66,2.77,9.06-11.2,3.2-7.93-.5.31-.88.39-1.4.11-1.28-.56-2.1,1.04-3.33,1.17-1.56.31-1.03,1.67-1.1,2.79-.29.71-.14,1.32.23,1.9,1.2,1.67-3.15,8.18-4.59,5.79.06-1.22-1.28-3.2-.13-4.01,1.24-.65,2.25-1.5,1.24-2.9-1.53-2.41-5.06.28-3.14,2.48,1.53,1.77.97,4.23,1.63,6.31.35,3.57-2.21,7.41-3.96,10.41-3.75,3.43-9.47,1.27-14.01,1.8-1.61-.24.17-3.84.5-4.93,1.38-2.22,5.07-1.16,7.28-1.09.4,3.77,4.98,1.28,2.44-1.22-.49-.33-.96-.32-1.47-.16-1.91.75-4.06.42-6.08.62-2.36.19,1.2-4.09,1.46-5.27-.04,0-.08,0-.12,0,.08-.05.15-.09.22-.13.03-.02.07-.03.1-.05-.04.04-.08.08-.11.13,1.86-.68,3.39-2.5,5.36-2.57,3.62.1,4.94-2.23,2.62-5.11-1.36-1.22-3.15.66-3.4,2.04-.38,1.77-1.69,2.91-2.98,4.08-.05.03-.09.06-.14.09-.31.21-.6.43-.93.6-.3.15-.6.29-.89.47-.13.08-.25.16-.36.26-.06-.1-.08-.25-.04-.47.27-2.42,1.65-3.87,3.7-5.1,1.38-2.16-2.78-2.63-2.24-5.54-.32-1.75,2.15-1.66,1.97-3.17-.63-4.01-4.34.54-3.02,1.49,1,.52.31,1.65.44,2.52-.25,2.7-3.93-.08-4.8,3.04-.77,2.06-3.19-.83-3.85,1.36-.7,1.41-1.99,2.27-2.84,3.56-.53,1.85-8.88,5.3-6.41,1.37,1.21-1.49,1.32-4.18,2.82-5.24.02,0,.04,0,.07,0,.32-.1.62-.25.92-.4.06-.01.12-.03.19-.04-.03,0-.06,0-.09-.01.06-.03.12-.06.17-.09.01,0,.02-.01.03-.02,0,0,0,0,0,.01.2-.08.46-.18.75-.28.12-.03.25-.04.37-.04.12,0,.23-.07.26-.2,1.79-.68,4.13-1.76,3.35-3.46-.43-.94-1.59-1.41-1.63-2.54-.11-1.2-1.7-.61-2.49-.92-2.56-1.21-5.11-.72-7.5.71-1.56.91-.72,3.31-.88,4.84-.02,1.85-2.13,3.3-3.28,4.58.58-2.62-.46-5.6.65-8.09,1.96-3.44-1.16-4.61-3.08-1.55-1.94,2.22,2.18,1.54,1.91,3.43.09,1.02.22,2.03.26,3.05,0,2.8-1.2,5.4-.42,8.21.11.89.28,5.52-1.06,4.89-.29-.42-.59-.83-.28-1.4.64-1.24.3-3.72-1.47-3.59-1.22.36-3.26-1.15-3.46.84-.04.28.15.64-.26.79-2.49,1.5.04,4.77-3.45,7.25-3.97,3.74-1.45-5.05-1.18-6.83.34-2.71,4.57-1.57,4.85-4.46,1.19-3.15,1.05-4.09-2.35-5.11-1-.07-1.84,0-2.52-.93-1.46-.36-3.66-.2-4.27,1.4.2.89-.47,1.17-.93,1.62-1.33,1.12.25,2.84.07,4.31.15,1.14,1.45,1.88,2.43,2.35,4.15,2.8-.7,14.86-5.16,15.56-.15-3.55,1.43-7.09.62-10.76-.37-1.66,1.38-3.45-.38-4.75-.61-1.25-2.46-1.66-2.94-.13-.32,1.4-2.6,2.49-1.45,3.98,1.25,1.09,3.2-.96,4.01,1.57.82,4.22-1.92,8.67-.83,12.89.16,5.47,2.19,12.94-3.09,3.33-1.24-2.34-3.54-3.8-4.57-6.26-.96-.59-.59-2.48-2.16-2.17-2-.45-.36-4.59-.29-6.11.16-1.11,1.43-1.58,1.85-2.58.44-1.41,2.18-1.36,2.85-2.59-.17-1.29.2-3.4-1.21-4.15-.36-.2-.35-.45-.18-.77.75-.74,1.06-3.63,2.25-3.19,1.96.89,4.82-2.55,2.92-4.05-.26-1.79-2.65-2.52-4.18-2.73-1.71.36-2.02,2.26-2.27,3.74-.54,1.65.07,2.14,1.11,3.32.22,1.35-.21,3.15-1.71,3.56-.58.15-1.07,1.12-1.75,1.02-1.53-.7-1.95.69-3.11,1.31-1.01.65-2.16,2.89-.55,3.49.92.53,2.41.2,2.51,1.51.73,3.32.5,7.24-1.63,10.01-1,1.17-1.49,2.36-.49,3.77.87.82-.3,4.49-1.04,2.38-.79-2.83-1.46-5.69-2.95-8.27-.81-1.09.57-1.69,1.04-2.59.58-1.19.02-2.81-1.16-2.93-1.49-.1-1.29-1.34-1.69-2.34-.5-1.08.2-1.99.76-2.81.02-.67.22-2.06-.86-1.84-.12.02-.28-.25-.44-.33-1.44-1.25-3.6.1-4.31,1.56-.4,1,.47,2.51,1.39,2.2.86-.29,1.29.2,1.91.6,1.57,1.01,1.82,4.52-.14,4.99-3.64-1.28-3.81,5.7,0,4.48,1.91-1.07,2.92.36,3.33,2.15.44,1.64-2.47,1.3-3.5,1.78-1.58-.14-3.24-1.12-4.39-2.28-.96-.68-2.3-1.09-2.5-2.5-.28-.79-1.06-1.52-.15-2.19.75-.7,1.06-1.76,2-2.3.38-.22.55-.7.29-1.09-.8-1.33-4.11-2.53-4.9-.74-.6.92-.13,3.47-1.84,2.58-2.99-1.36-3.36,1.32-4.84,3.02-2.38,2.03,1.73,5.69,3.65,3.59,1.29-.93,2.88.99,3.8-1.53.8-1.67,3.73,2.38,5.19,2.62,3.03,1.27,3.25,4.38,3.12,7.35-.15.67-.25.77-.95.59-1.82-.88-4.08-.54-5.58-1.83-1.55-.71,1.01-3.39-1.29-3.63-.08-.01-.21-.15-.2-.19.24-.98-.36-.71-.88-.64-2.2-.97-5.08,1.51-2.93,3.49.84.71.84.71.44,1.73-.97,2.1-1.51,4.24-1.61,6.56,0,1-2.1,2.06-2.28.57-.46-2.51-3.22.4-3.65-1.55-.08-1.42-1.63-3.53-.29-4.59.5-.31.82-.75.69-1.42-.26-2.01-3.07-1.57-3.48.23-.61,2.22,1.56,1.58,1.73,3.17.05,1.71,2.03,4.54.05,5.56-1.07.76-2.38,2.22-1.75,3.57.72,2.2,2.58.82,2.21,1.94-.76,1.2.95,1.44.84,2.51.21,1.68,1.05,6.48-1.9,3.67-1.77-2.03-4.17-4.36-2.77-7.22,1.23-2.79-1.49-4.91-4.14-4.31-1.32-.45-4.96,2.57-3.33,3.55,1.51.48-.67,2.13.72,2.94.43.51.79,1.39,1.62,1.16,1.3.08,2.41-1.75,3.35-.47,1.92,1.93,3.18,4.5,5.47,6.05,4.7,3.91.97,13.12-2.04,17.04-.34-1.02-3.29-8.42-1.68-8.1,2.68-.6,3-4.58,2.09-6.67-.48-1.59-1.81-.25-2.48-1.23-.99-1.85-1.62-1.3-3.3-.65-.74.56-1.44-.87-2.08.04-.86,1.38-2.77,2.62-2.56,4.38.25.84-.13,1.18-.77,1.56-.8.41-.98,1.09-.91,1.81-.1.5-.04,1.02.21,1.47.35.61.96,1.03,1.66,1.13.26.04.52.02.77-.03.1.19.03.42-.42.76-4.02,4.19,3.82,3.56,6.09,4.16,1.7.31,1.83.53,2.25,2.22.5,2.41,1.39,4.89,1.66,7.29-1.24-.12-2.39-1.12-3.71-1.24-1.41-.71-3.38-.49-4.77-.83-1.06-1.89-3.76-2.04-4.89-3.88-.04-.08-.1-.14-.15-.19-.2-.41-.45-.81-.8-1.11-.35-.3-.79-.44-1.24-.51-1.1-.35-2.83-.26-2.13,1.09.26.4.22.68-.16,1.06-.69.78-2.06,2.64-.3,3.02.37.1.68.13.83.55.37,1.04.59.93,1.67.69,1.79-.34,1.71-3.38,3.83-2.55,1.21.36,1.96,1.29,2.68,2.23.55.98-1.28,1.37-1.73,2.04-1.72,2.11-3.19-.29-4.62.69-.45.48-.76.33-1.07-.18-.46-.83-1.74-.12-2.35.17-1.68,1.09-1.33,2.66-.83,4.31.51,1.06,1.02-.46,2.15,1.76,2.26,2.03,5.33-1.94,4.66-4.27.32-1.64,3.15-1.79,3.96-3.21.41-2.23,6.12-.26,7.21.89,4.52,1.93,6.14,8.33,6.53,12.72-2.3,1.37-4.78-.41-6.83-1.46-.75-.67.8-1.83.8-2.7.41-2.73-2.1-2.84-3.89-1.84-.46.02-.92.2-1.32.43-.08.04-.14.1-.22.14-.36.15-.6.35-.78.59-.1.09-.2.16-.29.26-.09.09-.12.23-.03.34-.35.86-.46,1.85-1.94,2.14.27.4.89.13.96.72.04.36.26.52.62.55,4.2-.06,12.99,2,4.51,5.14-5.7,1.72.91,5.75.48,1.79-1.85-1.59,1.79-1.69,2.56-2.84,1.47-1.75,4.36-1.59,6.13-.57,2.8,10.18,10.4,19.49,9.27,30.42-.06.31-.37.65-.66.25-8.99-8.77-4.57-5.46-6.82-17.1-.12-1.16-1.63-10.33-3.16-6.19-.2,5.29.34,10.6.37,15.89-.06.96-.27,1.13-1.14.79-9.07-2.28-14.32-2.57-22.28-7.97-.88.36-.35,1.61.12,2.11,4.83,5.68,12.16,6.4,18.94,8.06,5.24,1.12,4.68,3.23,5.51,7.79,1.26,8.34,6.5,15.46,7.46,23.8.39,4.53,1.8,9.39,3.93,13.25-2.67-7.54-2.87-15.32-5.8-22.57-2.47-5.48-4.44-11.25-5.38-17.2-.22-1.37-.74-2.91-.8-4.23-.06-1.28.01-2.78.07-4.09.08-1.67.05-3.34-.02-5-.13-3.44-.44-6.87-.38-10.32,2.6.62,2.7,14.14,2.91,17.37,1.68,6.06,1.97,12.85,4.37,18.87,1.85,4.54,2.81,9.41,2.72,14.31,0,.31-.35.85.27.98.32-.37.44-1.65.33-2.29.32-1.99.76-3.95.27-5.95-.5-3.37.61-6.62.08-9.99-.88-5.04-4.53-8.74-5.76-13.59,14.13,10.4-.41,32.82,12.03,52.51-.84-5.47-3.54-11.01-4.39-16.66-2.09-7.2,0-14.76,0-22.12,2.05-5.58,6.35-10.27,7.65-16.23,3.48-13.21,4.5-27.38,11.45-39.29.07-.63-.47-.95-1.04-.68-7.29,5.59-7.2,16.28-9.35,24.53-2.1,9.48-4.25,19.21-8.42,27.97-.9-15.18.72-30.87,4.69-45.65,2.2-7.95,8.15-14,12.58-20.76,2.18-3.48,6.97-3.44,9.85-6.26,4.89-2.88,9.09-6.84,14.3-9.16,3.94-2.41-1.06-2.55-2.81-1.47-6.67,2.9-11.59,9-17.6,12.46,2.58-4.74,7.05-8.31,10.02-12.86,1.16-1.67,2.68-2.95,4.51-3.88,10.42-4.18,21.87-4.91,32.77-7.5,3.77-.78,7.56-.96,11.33-.2,2.69,1.08,11.9,3.04,9.62,7.15-1,1.68,1.72,3.45,3.18,2.73.44-.2.79-.39,1.29-.1,1.93,1.09,4.59-1.24,4.93-3.09-.07-.84-.46-1.69-1.21-2.05-1.28-.58-.92-2.18-2.35-2.59-1.19-.55-2.29-.43-3.41.14-3.88,1.24-7.93-1.46-11.56-2.72-5.26-1.84,12.24-2.86,13.44-4.77,1.27-.42,2.82.44,3.3,1.78.4,2.02,2.77,3.7,1.49,5.78-.2.38-.21.7.08.99.83.84,1.99,2.17,3.24,1.26.7-.55,1.44-1.09.87-2.17-.08-.16,0-.4.03-.6.07-.49-.11-.82-.61-.89-.82-.11-1.34-1.01-2.26-.85-2.72-2.2-1.72-4.31,1.49-3.26.96.9,2,1.71,2.61,2.96,1.33,3.49,2.8.6,4.9,1.82.61.61.72.62,1.41.1.12-.05.23-.11.34-.17,3.12-.63.24-6.16-1.77-6.39-4.21.26-8.34,1.82-12.35-.33-.58-.32-2.09-1.12-1.01-1.77,1.58-.95,3.03-2.17,4.81-2.71.19-.01.25-.16.28-.35,1.04-.59,2.04-1.28,2.9-2.09.08-.04.16-.07.24-.11.33-.18.6-.44.85-.71.15-.01.3-.03.47-.01,11.54-.33,3.99-1.08,13.6,2.97,1.15-.07,5.73.07,5.62,1.48-.21.94-.2.99.64,1.37,1.2.77,1.52,2.6,3.28,1.76,1.23-.05,2.18-2.15,1.94-3.16-.63-.61-1.28-1.23-2.24-1.51-4.18-.24-9.12.07-12.51-2.85,3.59-2.72,8.35.18,12.41,0,1.21.02,2.01.46,2.35,1.74.61,2.95,2.79,1.13,3.22,2.6.42,3.47,4.77,2.62,6.08.16,1.22-1.68-.49-2.75-.41-4.22Zm-12.77-13.42c-.4-1.3,1.95-.57,1.25-1.88-.41-.77,1.02-1.23,1.09-.38.32.97,2.07-.18,1.96,1.29-.22,1.5-2.1.84-2.99,1.74-.31.3-1.25-.29-1.31-.77Zm-11.91-7.51c-.65-.62.26-1.1.68-1.55.95.21,1.25,1.81,2.14.84.08-.09.33-.16.41-.1,1.15.71-.21,2.25-1.18,2.15-.94.08-1.45-.78-2.05-1.34Zm-.98,7.47c.86.12,1.04-1.81,1.8-.77,2.63,2.48,2.09-2.27,5.59,3.3.56,1.85-1.88,1.2-2.67,2.17-.24.19-.47.49-.12.75.52.27,1.67-1.69,1.42-.13.05.03.09.06.14.08-.41,1.07-1.69,2.47-2.66,1.19-.96-1.15-2.02.57-4.03-.88-1.63-.67.97-4.33,2.15-2.6.71.86.91-1.31,1.8-.4.25.24.51.04.78-.06-.59-1.26-2.45-.67-3.57-.52-.55.1-1.13.16-1.42.78-.07.15-.33.31-.51.3-1.68-.55-.16-3.21,1.29-3.22Zm-39.17,10.98c.59.2.24,1.18,1.02.65,1.08-.49.88.84.29,1.29-1.46.03-1.95-.85-1.32-1.94Zm15.98-25.09c1.84-1.97,2.7,1.37,3.48-.24.69-1.52.83-1.03,2.17-1.36-1.24-2.07-2.05,1.5-3.52.43-.31-.16-.8.02-1.21.03-1.63.3-.47-2.57.68-1.34.46.33.65.03.8-.33.71-2.85,2.1.89,2.81-.48.82-3.43,5.96.69,3.17,1.77-.73.03-1.79.25-1.77,1.21,4.68-2.15,1.98,4.07-1.36,3.36-1.52.38-1.79-1.45-.16-1.19.1.02.23-.13.35-.21-1.7-1.89-2.65,3.18-4.77-.2-.78-.69-.99-1.14-.68-1.46Zm-6.92,1.12c.26-1.67,2.68-1.61,2.57.17-.26,1.26-2.81,1.9-2.57-.17Zm-5.89,14.47c0,1.43-2.09,1.13-1.92-.17.18-1.48,2.13-1.35,1.92.17Zm.69-11.73c.04-.24-.28-.66-.52-.8-.24-.27-1.03-.21-.72-.71.37-.9,2.62-1.1,2.14.39-.55,1.07,1.83,1.95-.04,2.64-1.09.1-2.97,1.25-2.78-.84.2-1.63,1.37-.11,1.91-.68ZM82.78,2.57c.04-1.45,2.43-2.2,1.8-.27.55,1.89-1.99,1.94-1.8.27Zm-19.79,18.65c-.65-.64-.83.02-1.26.34-.54.23-1.01-.01-.98-.61-.09-1.46,1.83-1.45,1.81-2.7.54-1.82,2.28.98,2.39,1.77-.1.98-1.28,1.76-1.97,1.2Zm-20.96-.04c-.85-.38-2.38.63-2.21-.88.03-1.03.78-1.56,1.55-1.95.51-.18,2.01.35,1.12,1.05-.24,1.4,1.07-.23,1.58.06.74,1.06-1.19,2.09-2.05,1.72Zm.02,10.19c-1.74.16-2.42-2.37-1.08-3.25,2-.26,0,1.16.54,1.77,1.28-.11,1.82-2.19,2.54-3.15.93-1.33,2.78-.73,2.37,1.07-1.15,1.38-2.32,3.4-4.38,3.56Zm-8.3-1.78c-.5.95-1.52,3.94-2.73,3.52-2.92-2.61-.1-2.58-.61-3.7-.33-.14-.6.34-.85.5-.95.87-.98.88-.27,2.03,1.24,1.28-1.67,3.03-1.8,1.05-.04-.9-.32-.52-.67-.19-1.3.75-1.39-1.96-.18-2.3,1.73-.65.19-3.16,2.96-2.77,1.28.17,1.12.83,1.87,1.75.51-.52.44-1.44,1.38-1.34,1.24.03,1.42.29.9,1.45Zm-1.01-3.58c.33-2.59,2.21-.75,3.63-.58.16.03.38.23.41.39-.57,1.47-3.86,2.41-4.04.19Zm-12.28,16.93c-.07-.23-.14-.47-.17-.57.49-3.32,4.47-.11.17.57Zm-3.7,12.53c-.26.76-.75.9-1.42.76-1.01.02-1.88,2.79-2.77.82-2.35-1.01.28-2.16-1.42-3.42-.13-.09-.24-.36-.21-.51-.02-.85,3.1-2.99,2.94-1.3-.27.39-.35,1.46.36.89.3-.73.54-1.51,1.55-1.39,1.17.17,2.02,1.52,1.8,2.74.19.68-.65.89-.83,1.41Zm-8.38,17.3c.2-.84.16-1.78,1.22-2.1.46-.25.59.18.88.34.39.23.85.35,1.28.5,1.55.62.97-1.81,2.1-2.29.12-1.7-1.08.19-1.32.74-1.14,1.68-3.08-.72-2.33-2.04.61-1.02,1.18-3.17,2.65-2.92.17.52-.42,1.13-.57,1.65.59,1.14,1.78-2.39,3.19-2.16,3.68-.33-.5,3.37.62,4.09,1.83-3.64,4.41-3.45,3.54.96-.19.55-.78.97-.49,1.69-.63.98-2.26,1.09-3.31.69.07-.37.97-1.68.16-1.48-1.8,1.11-.93,4.74-3.89,4.03-.39-.07-.55-.25-.38-.63.15-.34.28-.56-.32-.42-.76.12-1.58-.22-2.32.17.06.09.14.17.22.24-.09,0-.17-.02-.25-.02-.03,0-.06,0-.09.01-.05-.04-.1-.08-.14-.13-.25-.27-.4-.59-.45-.92Zm1.44,5.24c-1.34-1.19,1.91-3.97,2.12-1.45-.42.81-.98,2.2-2.12,1.45Zm6.54.89s0,0,0,0c-1.27-.59-2.63-.57-3.98-.7-1.04-.25.03-1.82.07-2.54,1.04-1,3.85-2.51,4.65-.48.52,1.12,1.59,4.3-.73,3.72Zm-11.17,6.21c1.07,1.52-2.03,3.03-1.85,1.11.14-.52.78-.91.54-1.48-1.3.86-2.63,1.82-1.46-.64.35-.82,1.98-1.36,2.64-2.13.16.07.32.15.46.28.2.18.37.42.52.69-.07.05-.14.13-.2.23-.09.85-1.07,1.13-.66,1.95Zm-2.54,10.16c-.35-.49-.65-1.26-1.11-1.38-.87-.24-.78-.8-.86-1.32.06-1.74,2.06-2.96,2.97-1.44.14.56-.6,1.05-.77,1.54-.38.75.23,2.15,1.1,1.75-.05-1.23-1.01-1.36.34-2.34.73-.33.37-1.96,1.45-1.45,2.5,2.08-.98,7.46-3.12,4.65Zm10.37,2.55c.26-.22.52-.43.82-.6.37-.21.8-.41,1.23-.41.27.36-.17,1.25-.34,1.75-1.01,1.18-2.01.27-1.71-.74Zm3.83,1.35c-.24-.37-.67-.16-.75.09.24.42.64,1,.41,1.48-.24,1.46-7.06-.99-3.24-.97,2.84.87,1.82-3.86,4.35-3.58,1.61.22.83,4.63-.76,2.98Zm-.28,9.72c-.12.96-2.13.6-1.73-.44.1-.38.27-.61.75-.46.78.24,1.06.46.97.9Zm3.6,21.66c-6.55-1.53-14.53-2.11-18.35-8.19,2.51,1.12,4.86,2.95,7.48,4.06,4.48,1.72,9.66,1.32,13.93,3.53-.77.69-2.34.38-3.06.6Zm10.97,6.4c2.53,3.99,4.59,8.45,4.02,13.32-.03,0-.07,0-.1,0,.16,9.38-5.67-12.52-5.34-14.15.34-.84,1.12.49,1.42.84Zm24.92-45.97c-8.37,13.09-7.12,29.87-13.22,43.66-.16-.88.36-1.84.49-2.75-.45.72-.61,1.71-1.37,2.14,4.67-10.25,5.79-39.35,14.09-43.04Zm23.76-31.64c-5.52,3.2-10.72,7.86-16.66,10.23,4.74-4.02,10.26-9.83,16.66-10.23Zm48.66-7.69c.37-1.19,1.42-1.66,2.43-2.06.77-.67,3.81.91,2.36,1.51-.7-.55-1.56-.92-2.13.02.19.1.38.19.57.29.02-.04.03-.08.05-.11,2.28.5-4.34,3-3.28.36Zm-.17,2.45c.59-.44,1.15-1.09,1.94-.81,1.55-.31.96,1.91,2.12,2,.8-.68-1.51-2.58.55-2.62.46-.03.92-.02,1.38-.08.37-.05.73-.51,1.08.01.34.5.8.96.68,1.65-.03.19-.11.5-.23.53-.77.2-1.04.93-1.56,1.38-1.33,1.45-2.37-.7-3.57.13-1.4,1.23-3.98-.91-2.4-2.2Zm9.4-5.76c.77.28,2.3-.06,2.04.73-.99.69.88,1.31-.12,1.9-.81.75-2.78-.12-2.22-1.4-.13-.6-.23-.89.3-1.23Zm7.4-5.35c1.54.06,3.14-.44,1.98,1.8.19.06.42.22.56.16,1.35-.2,1.83,1.25,1.44,2.5-.11,0-.21.04-.25.15-.01.03-.03.06-.04.09,0,0,0,0,0,0,0,0,0,0,0,0,0,.01-.02.03-.03.04-.02.03-.04.06-.06.08-.01.01-.02.03-.03.04,0,0,0,0-.01.01-.05.05-.1.1-.16.14-.03.02-.06.05-.09.07-.02.01-.03.02-.05.03,0,0-.07.04-.04.02.03-.02-.02.01-.03.02-.02,0-.03.02-.05.03-.03.02-.07.04-.1.05-.07.03-.13.07-.2.1-.04.02-.09.03-.13.05-.16-.07-.31-.15-.4-.27-1.41-1.86-4.2,1.49-4.98-1.45-.29-.95.46-1.26,1.28-1.16.27.22.62.59,1.06.62.49-1.62-1.56-1.75-2.6-1.17-1.82-.75,1.93-2.58,2.94-1.96Zm-4.17-27.27c1.42,2.19,1.04-.2,2.97.46.05.03.09.06.14.09.16.12.29.27.43.45.09.13.16.24.24.37.14,1.49-.69.39-1.57,1.27.4.43.96.38,1.46.52,1.01.33.95,1.31-.12,1.26-.29.04-.65-.05-.72.38-.14.79-.66.75-1.12.39-1.03-.87-2.6.91-3.25-.91-.17-.9.94-1.5,1.78-1.26.14.04.37-.26.55-.4-.52-.69-1.36-.33-2.05-.16-1.81-.15-.15-3.24,1.28-2.46Zm-9.29,3.96c.1-.69,1.32-.6,1.55-1.27-.94-.6-1.72.47-2.5.99-.66-.65-1.28-1.73.01-2.03.73.15,1.26,0,1.7-.61.82-.28,1.11,1.22,2.03.7.5-.02,1.29.87.73,1.38-.8.94-2.75,2.67-3.54.85Zm-53.16,24.53s.05.04.08.06c-.04,0-.07,0-.1,0,0-.02.02-.04.03-.06Zm-.18.84s0,.01,0,.02c-.02,0-.04.01-.06.03-.02.01-.03.02-.05.04,0-.02,0-.03,0-.05.03-.01.06-.02.09-.03Zm2.76-2.31s.07-.02.11-.03c-.09.1-.18.2-.27.3.05-.09.11-.18.16-.27Zm18.5-11.42c-.06.03-.11.05-.16.08-.47.07-.87.26-1.21.58-.53.27-1.06.54-1.59.81-.74.38-1.53.68-2.21,1.16-1.31.57-2.62,1.18-3.83,1.92-.05,0-.11,0-.16.06-.12.11-.26.2-.39.3-.16.11-.32.22-.47.34-.67.44-1.38.81-2.04,1.27-.03.02-.07.05-.1.07-.56.2-1,.6-1.43,1.01-.55.4-1.11.8-1.65,1.21-.68.51-1.39,1.02-2.05,1.57-.43.3-.77.73-1.19,1.03,0-.01.02-.03.02-.04-.81.43-1.54,1.98-2.47,1.58-.01,0-.02,0-.03,0,.48-.84.91-1.75,1.36-2.65.24-.38.46-.78.64-1.19.01-.03.01-.05.02-.08.29-.54.59-1.06.92-1.55.62.3-.4,2.1.79,1.78,1.37-.8,2.68-1.73,3.83-2.84.75-.59,1.51-1.17,2.2-1.84.43-.42.9-.81,1.36-1.2.37.1.74.1,1.19-.11,2.99-1.41,6.03-2.77,9.15-3.86-.03.13-.06.26-.09.38-.13.06-.25.13-.38.19Zm1.51-.82c.07-.02.15-.05.22-.07-.09.05-.18.09-.26.14.01-.02.03-.05.04-.07Zm3.12-10.93c.01-1.85-1.05-4.07.46-5.53.39-.65.91-.7,1.54-.75,1.7-.41,1.23.87,1.17,2.02.05.01.09.03.14.04-.62,1.31-1.53,7.96-3.32,4.21Zm4.96-17.14c-.3-.57.8-1.52,1.33-1.66,1.46,1.2-.07,1.64-1.33,1.66Zm-4.95,7.32c1.85.09-1.18-2.25,2.33-2.24.84.03,1.35.85,2.14-.09.51-.61,1.14-.28,1.33.63.11.56.33.75.89.82,1.82.96-1.03,2.24-2.05,2.26-.32.12-.75.28-.87.54-.42.94-1.28.94-2.06,1.08-1.08.23-.88-1.42-2.11-.94-.68-.05-.59-2.07.41-2.06Zm.26,3.32c-.39.98-1.6.8-1.44-.17.27-.74,1.2-.31,1.44.17Zm-3.48-2.29c.39-1.43,1.65.17,1.79.84-.39.93-2.16.26-1.79-.84Zm-8.68,6.67c3.13-.69,5.19-2.78,7.04-5.33.92-1.01,1.39.19,2.3.56.59.13.38.77.62,1.12,1.7,1.01.42,2.78.94,4.21,1.98,4.31,1.43,10.67-3.75,12.38-2.82.77-5.43,2.79-8.24,3.26,1.32-1.81,2.35-3.87,3.24-6,.24-.5.39-1.1,1.12-1.12.44-.96,1.42-1.04,2.23-1.42.72-.34,1.28-2.26.22-2.47-2.59-.39-1.32-2.31-4.53-.22-1.48.5-1.5,3.07.05,3.47,1.65,1.03-1.94,6.01-3.64,8.02-.63.58-1.31,1.12-1.93,1.71-.95.91-2.04,1.67-3.05,2.51-.05.04-.07.09-.08.14-1.31.86-2.49,1.26-2.08-.82,2.05-6.66,2.38-16.78,9.55-20Zm1.04,7.43c-.1-.39-.46-1.45.21-1.5,1.11.29,1.78-2.38,2.66-.48.15,2.09.92.03,1.63.79-.26,1.53-3.45,1.77-4.5,1.18Zm-2.53-10.89c-1.49.99-1.08-2.13-1.4-2.92,1.1-3.93,3.55,1.16,1.4,2.92Zm-1.88-11.01c.43-.05.77,0,.93-.55.37-1.48,1.6.41,2.25-.55.64-.92,1.31.3,2,.29,1.29-.54,2.65,1.19,3.41,2.03.53,1.15-1.34.64-1.89,1.1-.47.24-.76.55-1.36.13-.83-.47-1.29,1.04-.62,1.62,1.38.13,1.98-1.42,3.41-1.23,1.04.3,1.83-.74,2.7.25-1.24.67-1.87,2.31-3.55,1.81-.2.12-.37.34-.52.59-.2.06-.39.13-.58.22-.29.13-.56.29-.85.42-.58-.17-1.06-.5-.6-1.2.09-.12-.12-.45-.19-.69-.52.04-.66.3-.58.82.19,1.23-1.96,1.72-2.47.73-.9-1.5-.31-1.62.78-2.44-1.01-.61-3.14,2.5-2.92-.31.85-1.07-1.42-2.85.65-3.05Zm-1.21,6.11c1.49-.85,1.31,6.02,1.39,7.13.03,1.14-4.4,12.37-5.25,10.73-1.36-3.82,1.26-7.75.45-11.72-.17-2.52,1.78-4.47,3.41-6.14Zm-9.92,10.25c.3.22.55.53.99.46.32-.97-1.12-1.53-.58-2.53,1.65.13.23,2.48,2.29.3,1.53-.83,2.51,4.2-1.6,3.81-.54-.24-1.29-.74-1.89-.93-.24-.05-.54.07-.57-.3-.18-.85.71-1.03,1.35-.81Zm-8.81-4.38c.63-.31,1.08-.67,1.2-1.46.21-1.58,1.73.13,2.53-.6,1.07-.94.94,1.76,1.75.58.14-1.92-1.96-1.05-3.09-1.46-1.82-.58-1.51,1.93-2.7,2.12-1.32.06-1.78-1.92-.65-2.56.45-.24,1.21-.71,1.1-1.25-.69-1.97,3.68-1.98,3.58-.03.71.63,1.74-1.14,2.49.03.28.36.51.78,1.1.67,1.16-.31,1.12,1.3.57,1.8-1.7,1.18,1.44,2.43-2.52,3.31-1.34-.18-1.97-.58-3.06-.3-.65.55.06.81.65.73.33.04.25.4.09.54-1.26,1.38-5.98-1.08-3.05-2.11Zm-3.09,19.93c2.63-4.76,7.37-7.73,10.65-11.94.59-1.46,1.67-1.16,2.96-1.01.6-.05,1.36-.37,1.74-.11.87,1.4,1.13,3.56,1.78,5.17.08.26.12.68.26.79-.03.42-.02.84,0,1.26-.2.75.03,1.62-.31,2.38-.81,2.98-1.58,5.99-2.82,8.82,0,0,0,.01-.01.02-.43,1.04-1.16,1.93-1.69,2.92-.2.37-.44.82-.59,1.28-.29.19-.51.48-.72.76-2.94,3.97-5.98,7.86-9.11,11.68-9.18,12.7-3.42.85-3.05-5.07,1.5-5.58-1.76-11.7.9-16.95Zm-9.77-25.39c.96-1.39.85.24,1.87.02.45-.79-.02-1.65-1.16-1.46-1.59.03-.14-1.47.39-1.93.13-.12.49-.22.55-.15.7.78,1.77.32,2.55.82,1.42.5-.39,1.59.78,1.92,2.19.54-1.31,3.68-2.37,2.17.4-.66,1.41-.64,1.34-1.56-1.32-.47-4.15,3.73-3.95.17Zm-3.89,12.53c-.15-.9-1.27-1.72-2.12-1.28-2.59.36,1.71-4.51,2.72-3.26.66.6-.25,1.16-.5,1.7-.38.72.31,1.75,1.09,1.27.55-.3-.36-.66-.23-1.04,1.24-.99.72-3.54,2.84-3.22.91.02,2.1,1.46,1.25,2.13-1.06,0,.21,1.09-.03,1.47-.3.36-.71.63-1.11.88-.58.13-1.37-.15-1.47.71-.04,1.39-2.16,2.42-2.43.64Zm-1.9,12.37c.75-.81,1.53-2.44,2.82-2.59,1.08-.21,1.27-.16,1.38.93.05.47.29.58.58.78,1.82.96-.72,1.54.05,2.78.6,1.83-3.79,2.97-4.12.93,0-.77.76-1.3,1.19-1.88.58-.73,1.1.1,1.74-.05-.58-.86-1.41-1.22-2.13-.14-.71,1.1-1.86.63-1.51-.77Zm1.93,12.29c2.31.07,4.58-1.82,1.96-3.52-1.12-.68-2.13.7-2.3,1.74-.06,1.13-2.86,3.98-3.37,2.09.52-2.44.73-5,1.7-7.29.34-.94.61-1.07,1.63-.75.64.3,1.02.02,1.51-.36,1.2.02,1.96-.46,2.15-1.72,1.02-1.48,2.59,2.49,3.74,2.42,1.22,2.04,2.5,4.17,3.44,6.36,3.15,5.75-.16,12.45-1.91,18.14-1.91,5.21-6.14,9.37-9.5,13.73-1.75,1.84-2.73,4.87-4.83,6.2-1.1-.3-.74-1.82-.88-2.72.18-6.85-.2-13.65-.71-20.48.77-5.27,2.15-11.35,7.37-13.85Zm1.49-3.1c1.41.11,1.39,2.43-.12,2.19-.92.02-1.05-2.28.12-2.19Zm-11.62-4.04c.76-3.24-.99-2.91,3.19-3.52,7.4,3.12-.16,16.68-1.18,22.36-1.05.98-1.54-5.53-2.12-6.49-.88-2.24,1.92-3.76,1.86-5.86-.12-.71-.44-1.23-1.17-1.49-1.18-.9-.11-2.8-.57-4.09-.01-.31-.15-.7-.02-.91Zm.84,5.92c.83.75.02,1.74-.58,2.36-1.22,1.44-2.19,5.15-4.61,4.26-1.18-.45.36-1.87-.87-2.06-.53-.07-.42-.49-.38-.84.22-1.25,1.64-3.01,2.78-2.08-.01.8-1.95,2.15-.6,2.74.11,0,.32-.17.31-.23-.17-.89.49-1.27,1.01-1.76.85-.78,1.43-3.36,2.93-2.38Zm-11.63-6.91c.55.12.87-.58,1.21-.69,2.87.52,1.72,2.24-.46,2.32-5.28-.45.29-5.62-.75-1.63Zm.43,2.41c2.23-.83,3.55,1.77,5.6,2.29,1.06.56,4.61-.23,3.91,1.69-.6.55-1.02,1.22-2.15,1.14-1.7-.12-3.46,2-3.45,3.75,1.32,2.78,1.52,3.77,4.87,2.74,2.87,1.47,2.45,9.06,3.33,12.2-.17,1.09,1.14,6.61-.45,6.08-1.9-1-3.48-3.16-3.69-5.35-.47-1.77.12-3.21.41-4.96.34-1.11-1.38-2.04-2.1-1.05-.92,1.1-2.03.52-3.03.21-1.22-.71-3.96-.08-3.05,1.67.53.96.05,2.01-.53,2.62-1.7.87-1.01,2.88-1.7,4.41-1.35,1.49-2.76-6.04-3.49-7.1-.51-1.03-.3-1.95.08-2.97-.03-.81.17-1.41,1.1-1.52.03,0,.06-.03.08-.07.13-.03.26-.05.39-.08.42-.1.82-.26,1.1-.61.37-.47.46-1.09.5-1.7.62-1.1,1.31-2.45.59-3.51-2.14-1.85.06-8.4,1.69-9.87Zm6.22,19.68c.51-1.49,1.94-.67,1.46.76-.85,4.51-5.81,1.38-3.7-.66.25-.28.53-.21.63.23.18,1.73,1.91,1.23,1.61-.34Zm-3.52.31c-.26.17-.52.34-.7.45-2.82-.48-.37-2.06.7-.45Zm-13.69-6.26c-1.06-.58-.39-2.49.37-3.24.53-.75,1.06.24,1.73.32,1.36.42,1.23-.48.2-.6-1.11-.48.64-2.48,1.5-2.53,2.05-.45.91,2.46,2.13,2.98-.29.74-.25,2.2-1.43,1.86-1.55-.61-3.06,1.47-4.49,1.21Zm2.97-.26c.37-.29.81-.45,1.26-.06.95,1.05,2.91-2.37,1.74-2.75.37-2.04,2.85-1.86,3.08.07.35,1.35-1.92,1.1-1.21,1.97.19.19.3.41.36.65,0,.1-.01.2-.02.3-.04.39-.12.82-.37,1.14-.24.29-.62.39-.97.46-.2.04-.41.08-.61.13-1.05-.06-2.19.39-3.14.8-2.21.41-1.41-2.04-.13-2.72Zm.19,11.4c-.45-2.29-.35-4.59-.6-6.71-.05-.92.62-1.73,1.36-.98.45,2.02,1.13,4.04,1.8,6.01,1.7,3.96,3.01,5.91,1.72,10.38-1.24,1.86-4.09-7.46-4.28-8.7Zm-1.03,26.27c-4.86-11.15-2.61-8.14.41-17.23.26-.74.9-4.26,1.93-2.72,1.2,2.44,3.19,4.07,2.54,7.12-1,4.83-1.67,10.59-2.15,15.65-.67,1.69-2.06-2.3-2.74-2.83Zm5.15-10.2c1.08-6.21,1.02-12.6,4.34-18.11.34-.77,1.05-2.3,1.94-1.03,1.91,2.61,4.92.89,3.92,2.27,1.25,6.23,7.13,5.97,5.93,9.33-1.23,9.47-2.31,18.84-5.43,27.95-.68,5.77-1.22,11.56-2.26,17.29-1.42,5.9-5.58-5.51-6.25-7.35-4.8-9.33-4.44-20.33-2.18-30.35Zm58.48-31.2c-5.11.81-10.29,1.85-14.81,4.45-5.37,5.79-10.44,12.23-15.53,18.27-3.98,7.14-10.15,12.85-13.09,20.61-5.06,14.23-5.58,29.63-6.17,44.37-.82-1.69-1.01-3.83-.85-5.7.78-5.39-3.19-9.74-4.26-14.63,1.38,2.02,3.04,4.08,3.69,6.48-.12.72.85,1.51,1.16.63.59-8.05,1.75-16.17,3.08-24.16.88-3.91,2.04-7.75,3.14-11.6,1.54-4.32.38-9.07,1.8-13.33.57,1.88-.06,4.09.06,6.06.77,1.72-.27,3.61.36,5.21,8.61-12.53,18.76-24.12,28.26-36.04,1.22-1.82,2.44-4.04,4.17-5.3-.7,2.74-4.31,4.31-4.41,7.12,1.97,0,3.71-1.26,5.62-1.69,3-1.03,6.27-.87,9.29-1.72-.16.74-.87.88-1.51.98Zm7.53-1.51c-1.92.37-4.14,1.44-6,.52.53-.15,1.05-.32,1.56-.55.94-.17,4.51-3.59,4.45-1.8-.13.77,1.34,1.5,0,1.83Zm4.76-.98c-1.52-.88,10.52-2.73,11.14-2.14-3.44.87-7.57.96-11.14,2.14Zm16.6-1.96c-1.02-.5-2.25,0-3.17-.42.79-.46,2.02-.34,2.74-.54.97-.09,1.51.81.43.96Zm-20.32,1.04c4.89-7.06,14.91-7.02,21.78-11.08,0,0,0,0-.01.01.02-.02.05-.03.07-.04,0,0,0,0,0,0,0,0,0,0,0,0,2.94-2,6.09-1.89,9.45-1.04.35.06.61.14.38.58-.41.77.47,1.18.54,1.83.68.37.68-.66,1.67.35,1.68,1.43,4.67-3.35,2.48-4.08,0,0,0,0,0,0-.78-.98-1.46-1.53-2.7-.78-.53.14-1.22.27-1.22.96-.04.96-5.05-.06-5.92-.24,1.57-1.31,3.44-2.33,5.21-3.43.07.04.15.05.22.01.67-.4,1.36-.78,2.01-1.23.48-.33,1.03-.72,1.39-1.22,2.89-2.57,6.18-8.23,8.9-6.76.46.44,1.07.7,1.53.45.99-.53,1.75.44,2.66.24.1-.02.3.12.37.23,1.5,1.85.87,4.51,1.36,6.74.27,1.49-.91,2.2-1.67,3.17-.85.5-1.45,1.4-2.11,2.14-.47.31-.93.61-1.38.9-.2.1-.39.19-.58.3-.21.13-.43.27-.61.45-16.56,10.32-23.19,8.26-43.81,11.52Zm33.17-12.91l-.05.04c.48-1.42,2.13-.48,3.25-.54.35,2.51-2.18,1.65-1.04,3,.06.05-.08.5-.23.58-.7.52-1.28-.33-1.76-.62-1.52.46-.82-1.76-.22-2.42.03.02.06.03.1.05-.02-.03-.04-.06-.06-.09Zm36.92,3.54c.89-.54,2.34,1.62.93,1.66-.44-.04-.82-.46-1.29-.22-.11.87,2.33,1.16.96,1.85-1.6.51-1.6-1.73-2.79-2.2-.06-1.16,1.17-1.44,2.19-1.09Zm-.89-4.18c0-.05-.01-.11-.02-.16-1.07-.27-7.11-.56-3.76-2.05,2.02-.66,4.27-2.14,6.43-1.4,1.72,2.84-.05,3.3-2.65,3.61Zm3.77-2.71c-.38-2.78,1.66-.96,2.31-1.62-.09-1.08-1.6-.78-2.35-.75-1.83.15-1.11-1.39-.43-2.26.8-1.33,1.89-.15,3.08-.14h0c.55-.46.97,0,1.37.25,2.72,1.44-1,2.56.23,2.97.94-.88,1.77-.4,1.79.78-.15.61-1.05.78-1.65.7-1.26-.16-3.73,1.44-4.34.07Zm8.42,7.12c-.27-.16-.88-.41-1.1-.29-.36.28.05.52.22.73.89,1-1.02,1.44-1.44,1.56-2.13-.04-3.37-2.81-1.45-3.55.46.08.88.28,1.31-.12-.45-.88-2.14-.85-2.71.15-.26.46-.86.77-1.49.57-1.24-.27-1.79-2.7-.03-2.48.9.25.76-.64.09-.93-.29-.09-.7.06-.98-.19.51-.66,1.3-1.44,2.29-1.04.11.05.36-.14.5-.27.84-.96,1.37-.47,2.16.06,1.09.53.26,1.05.36,2.01.71.01,1.31-.4,1.69-.98.8.91-.58,2.06.6,2.73.77.32,1.32,2.35,0,2.02Z"/>
        <path class="cls-1" d="m108.83,16.12s.02,0,.03,0c.02-.02.04-.04.05-.06-.03,0-.05.02-.08.03,0,0,0,.02,0,.03Z"/>
        <path class="cls-1" d="m43.37,131.81s0,.05-.01.08c0-.01.01-.03.02-.04v-.04Z"/>
        <path class="cls-1" d="m43.49,131.34c-.03.13-.06.26-.09.39.07-.13.19-.27.09-.39Z"/>
        <path class="cls-1" d="m43.4,131.73s-.03.05-.03.07v.04s.02-.07.03-.11Z"/>
        <path class="cls-1" d="m90.82,5.06c.93-1.35.73.09,1.67-.07.29-.7-.6-1.24-1.31-1.14-1.32-.07-1.49,2.37-.35,1.21Z"/>
        <path class="cls-1" d="m96.21,3.99c.03-.64-1.19-.85-1.56-.46-.2.4,1.35.6,1.56.46Z"/>
        <path class="cls-1" d="m14.22,54.88c-.04.36.1.67.28.97.46-.62.09-1.58,1.19-1.57.75-1.55-1.73-.53-1.47.6Z"/>
        <path class="cls-1" d="m106.17,10.86c.3-.94,1.01-1.16,1.89-1.12.05,0,.1-.16.15-.24-.3-1.4-3.76,1.28-2.04,1.36Z"/>
        <path class="cls-1" d="m54.15,33.44c-.36-.17-.52-.64-.84-.1.32.08.64.49.84.1Z"/>
        <path class="cls-1" d="m129.59,35.52c-.16-.63-.73-.8-1.25-1.06.31.52.55,1.07,1.25,1.06Z"/>
      </g>
      <rect class="cls-1" x="58.1" y="129.62" width="136.56" height="1.85"/>
      <g>
        <path class="cls-1" d="m59.4,116.47c-.36-.81-.66-1.12-1.29-1.12v-.38h3.35v.38c-.85,0-.96.21-.59,1.12l1.27,3.12,1.95-4.61h.38l1.91,4.61,1.3-3.12c.34-.83.28-1.12-.55-1.12v-.38h2.65v.38c-.66,0-.98.28-1.34,1.12l-2.21,5.14h-.38l-1.93-4.48-1.93,4.48h-.38l-2.21-5.14Z"/>
        <path class="cls-1" d="m70.4,118.12c0-2,1.74-3.46,3.5-3.46s3.02,1.36,2.57,2.99h-4.56c-.23,1.78.51,3.16,2.46,3.16.62,0,1.53-.36,2.08-.87l.34.42c-.66.7-1.81,1.25-2.89,1.25-2.08,0-3.5-1.57-3.5-3.48Zm4.76-1.17c.21-.6-.11-1.53-1.36-1.53-.81,0-1.51.6-1.78,1.53h3.14Z"/>
        <path class="cls-1" d="m78.38,118.12c0-1.91,1.49-3.46,3.29-3.46.95,0,1.74.42,2.31,1.12v-3.08c0-1.89-.23-2.21-1.49-2.21v-.4l2.84-.47v9.07c0,1.8.3,2.02,1.3,2.02v.36l-2.33.47c-.09-.19-.25-.79-.3-1.1-.53.66-1.29,1.15-2.33,1.15-1.8,0-3.29-1.57-3.29-3.48Zm5.6,1.23v-2.44c-.34-.89-1.06-1.49-1.91-1.49-1.47,0-2.16,1.19-2.16,2.7s.68,2.72,2.16,2.72c.85,0,1.57-.6,1.91-1.49Z"/>
        <path class="cls-1" d="m88.08,118.12c0-1.91,1.49-3.46,3.29-3.46.95,0,1.74.42,2.31,1.12v-3.08c0-1.89-.23-2.21-1.49-2.21v-.4l2.84-.47v9.07c0,1.8.3,2.02,1.3,2.02v.36l-2.33.47c-.09-.19-.25-.79-.3-1.1-.53.66-1.29,1.15-2.33,1.15-1.8,0-3.29-1.57-3.29-3.48Zm5.6,1.23v-2.44c-.34-.89-1.06-1.49-1.91-1.49-1.47,0-2.16,1.19-2.16,2.7s.68,2.72,2.16,2.72c.85,0,1.57-.6,1.91-1.49Z"/>
        <path class="cls-1" d="m97.59,120.88c1.25,0,1.49-.32,1.49-2.21v-.95c0-1.89-.25-2.19-1.49-2.19v-.4l2.84-.47v4.01c0,1.89.23,2.21,1.49,2.21v.4h-4.33v-.4Zm1.32-8.92c0-.45.38-.83.83-.83s.83.38.83.83-.38.85-.83.85-.83-.38-.83-.85Z"/>
        <path class="cls-1" d="m103,120.88c1.25,0,1.49-.32,1.49-2.21v-.95c0-1.89-.25-2.19-1.49-2.19v-.4l2.51-.47c.09.19.26.96.32,1.36.51-.64,1.38-1.36,2.63-1.36,1.7,0,2.46,1.21,2.46,2.82v1.19c0,1.89.23,2.21,1.49,2.21v.4h-4.33v-.4c1.23,0,1.49-.32,1.49-2.21v-1.1c0-1.23-.43-2.02-1.57-2.02-1.04,0-2.17.85-2.17,1.89v1.23c0,1.95.15,2.21,1.32,2.21v.4h-4.16v-.4Z"/>
        <path class="cls-1" d="m114.32,122.77l.34.21c-1.57,1.76.28,2.61,1.78,2.61,1.17,0,2.34-.57,2.34-1.46s-.95-1.17-2.53-1.32c-1.55-.15-2.68-.62-2.68-1.76,0-.68.6-1.21,1.59-1.51-.95-.45-1.59-1.29-1.59-2.31,0-1.42,1.27-2.57,2.82-2.57.76,0,1.44.27,1.95.72.34-.42,1.02-.72,1.42-.72,1.3,0,1.38,1.55.62,1.59-.83.06-.36-.85-1.13-.85-.15,0-.38.09-.59.3.34.42.55.96.55,1.53,0,1.4-1.23,2.4-2.46,2.57-.83.09-2.12.28-2.12.79s1.1.66,1.72.72c2.61.21,3.44,1.32,3.44,2.48,0,1.57-1.49,2.53-3.35,2.53-3.19,0-4.44-2.34-2.12-3.55Zm3.42-5.54c0-1.12-.44-1.97-1.36-1.97s-1.38.85-1.38,1.97.45,1.95,1.38,1.95,1.36-.85,1.36-1.95Z"/>
        <path class="cls-1" d="m126.08,118.29c0-2.23,1.83-3.63,3.35-3.63s2.25.66,2.25,1.36c0,.3-.19.81-.83.81-.42,0-.74-.34-.74-.76,0-.62-.34-.81-.68-.81-1,0-1.81,1.29-1.81,3.02,0,1.51.74,2.51,2.29,2.51.62,0,1.4-.28,2.02-.87l.32.42c-.72.77-1.74,1.25-2.82,1.25-2.1,0-3.35-1.42-3.35-3.31Z"/>
        <path class="cls-1" d="m133.52,118.12c0-2,1.74-3.46,3.5-3.46s3.02,1.36,2.57,2.99h-4.56c-.23,1.78.51,3.16,2.46,3.16.62,0,1.53-.36,2.08-.87l.34.42c-.66.7-1.81,1.25-2.89,1.25-2.08,0-3.5-1.57-3.5-3.48Zm4.76-1.17c.21-.6-.11-1.53-1.36-1.53-.81,0-1.51.6-1.78,1.53h3.14Z"/>
        <path class="cls-1" d="m141.3,120.88c1.25,0,1.49-.32,1.49-2.21v-.95c0-1.89-.25-2.19-1.49-2.19v-.4l2.51-.47c.09.19.26.96.32,1.36.38-.76,1.23-1.36,1.99-1.36,1.04,0,1.49.7,1.49,1.17,0,.42-.17.89-.76.89-.36,0-.66-.32-.66-.68,0-.4-.23-.62-.6-.62-.43,0-1.46.7-1.46,2.21v1.04c0,1.89.23,2.21,1.49,2.21v.4h-4.33v-.4Z"/>
        <path class="cls-1" d="m148.92,118.12c0-2,1.74-3.46,3.5-3.46s3.02,1.36,2.57,2.99h-4.56c-.23,1.78.51,3.16,2.46,3.16.62,0,1.53-.36,2.08-.87l.34.42c-.66.7-1.81,1.25-2.89,1.25-2.08,0-3.5-1.57-3.5-3.48Zm4.76-1.17c.21-.6-.11-1.53-1.36-1.53-.81,0-1.51.6-1.78,1.53h3.14Z"/>
        <path class="cls-1" d="m156.71,120.88c1.25,0,1.49-.32,1.49-2.21v-.95c0-1.89-.25-2.19-1.49-2.19v-.4l2.51-.47c.09.19.26.96.32,1.36.51-.64,1.36-1.36,2.46-1.36,1.15,0,1.76.55,2.02,1.42.44-.62,1.53-1.42,2.65-1.42,1.68,0,2.17,1.21,2.17,2.82v1.19c0,1.89.25,2.21,1.49,2.21v.4h-4.01v-.4c1.04,0,1.17-.21,1.17-2.21v-1.1c0-1.23-.36-2.02-1.34-2.02-.64,0-1.97.72-1.97,1.89v1.23c0,2,.13,2.21,1.19,2.21v.4h-3.72v-.4c1.04,0,1.19-.21,1.19-2.21v-1.1c0-1.23-.38-2.02-1.36-2.02-.66,0-1.95.72-1.95,1.89v1.23c0,1.97.13,2.21,1.17,2.21v.4h-4.01v-.4Z"/>
        <path class="cls-1" d="m171.63,118.12c0-1.91,1.72-3.46,3.82-3.46s3.82,1.55,3.82,3.46-1.72,3.48-3.82,3.48-3.82-1.57-3.82-3.48Zm6.11,0c0-1.51-.72-2.74-2.29-2.74s-2.29,1.23-2.29,2.74.74,2.74,2.29,2.74,2.29-1.23,2.29-2.74Z"/>
        <path class="cls-1" d="m180.9,120.88c1.25,0,1.49-.32,1.49-2.21v-.95c0-1.89-.25-2.19-1.49-2.19v-.4l2.51-.47c.09.19.26.96.32,1.36.51-.64,1.38-1.36,2.63-1.36,1.7,0,2.46,1.21,2.46,2.82v1.19c0,1.89.23,2.21,1.49,2.21v.4h-4.33v-.4c1.23,0,1.49-.32,1.49-2.21v-1.1c0-1.23-.43-2.02-1.57-2.02-1.04,0-2.17.85-2.17,1.89v1.23c0,1.95.15,2.21,1.32,2.21v.4h-4.16v-.4Z"/>
        <path class="cls-1" d="m191.67,125.76c0-.74.85-.74,1.44-2.21l.95-2.36-2.17-4.71c-.4-.85-.68-1.12-1.27-1.12v-.38h3.35v.38c-.83,0-1.02.19-.6,1.12l1.38,3.02,1.21-3.02c.34-.87.23-1.12-.55-1.12v-.38h2.65v.38c-.59,0-1,.26-1.34,1.12l-3.69,9.21c-.15.38-.4.7-.7.7-.27,0-.64-.15-.64-.62Z"/>
      </g>
      <g>
        <path class="cls-1" d="m53.86,148.32h.44s.02,3.78,3.87,3.78c1.49,0,2.63-.97,2.63-2.31,0-.97-.97-1.79-2.42-2.54l-2.02-1.03c-1.22-.63-2.33-1.87-2.33-3.47,0-1.74,1.45-3.13,3.49-3.13,1.24,0,1.93.4,2.56.86.25-.21.5-.53.61-.97h.42v4.62h-.44c-.15-1.68-.78-3.68-3.21-3.68-1.18,0-2.04.82-2.04,1.87s.74,1.66,2.56,2.61l2,1.03c1.62.82,2.21,2.04,2.21,3.19,0,2.29-1.85,3.78-4.01,3.78-1.6,0-2.61-.84-3.28-.99-.25.21-.5.53-.61.99h-.42v-4.62Z"/>
        <path class="cls-1" d="m64.13,152.15c1.74,0,2-.36,2-2.46v-6.83c0-2.1-.25-2.44-2-2.44v-.44h5.67v.44c-1.74,0-2,.34-2,2.44v2.65h7.12v-2.65c0-2.1-.27-2.44-2.02-2.44v-.44h5.72v.44c-1.77,0-2.02.34-2.02,2.44v6.83c0,2.1.25,2.46,2.02,2.46v.44h-5.72v-.44c1.74,0,2.02-.36,2.02-2.46v-3.4h-7.12v3.4c0,2.1.25,2.46,2,2.46v.44h-5.67v-.44Z"/>
        <path class="cls-1" d="m81.88,147.9v-5.04c0-2.1-.25-2.44-2-2.44v-.44h5.67v.44c-1.74,0-2,.34-2,2.44v5.15c0,2.73,1.58,3.99,3.68,3.99,2.21,0,3.87-1.26,3.87-3.99v-5.15c0-2.1-.27-2.44-2.02-2.44v-.44h4.92v.44c-1.74,0-2.02.34-2.02,2.44v5.04c0,3.3-2.27,5.04-5.06,5.04s-5.04-1.74-5.04-5.04Z"/>
        <path class="cls-1" d="m95.24,152.15c1.74,0,2-.36,2-2.46v-6.83c0-2.1-.25-2.44-2-2.44v-.44h5.67v.44c-1.74,0-2,.34-2,2.44v2.65h7.12v-2.65c0-2.1-.27-2.44-2.02-2.44v-.44h5.72v.44c-1.77,0-2.02.34-2.02,2.44v6.83c0,2.1.25,2.46,2.02,2.46v.44h-5.72v-.44c1.74,0,2.02-.36,2.02-2.46v-3.4h-7.12v3.4c0,2.1.25,2.46,2,2.46v.44h-5.67v-.44Z"/>
        <path class="cls-1" d="m111.31,152.15c1.74,0,2-.36,2-2.46v-6.83c0-2.1-.25-2.44-2-2.44v-.44h9.58l.19,2.77h-.44l-.1-.42c-.29-1.09-.5-1.58-2.44-1.58h-3.11v4.77h1.05c2.1,0,2.44-.25,2.44-2.02h.44v4.81h-.44c0-1.77-.34-2.02-2.44-2.02h-1.05v3.07c0,2.1.25,2.44,2,2.44h1.81c1.93,0,2.16-.48,2.44-1.6l.1-.42h.44l-.17,2.79h-10.3v-.44Z"/>
        <path class="cls-1" d="m123.56,152.15c1.74,0,2-.36,2-2.46v-6.83c0-2.1-.25-2.44-2-2.44v-.44h5.67v.44c-1.74,0-2,.34-2,2.44v6.83c0,2.1.25,2.46,2,2.46v.44h-5.67v-.44Z"/>
        <path class="cls-1" d="m131.36,149.27c0-1.68,1.09-2.65,2.4-3.47-.74-1.16-1.16-2.21-1.16-3.15,0-1.74,1.6-3.03,3.51-3.03,1.62,0,3,.99,3,2.42,0,1.87-2.06,2.52-3.78,3.7.78,1.16,1.91,2.46,3.42,4.12.15-.4.25-.82.29-1.26.19-1.53-.1-1.89-1.85-1.89v-.44h4.75v.44c-1.77,0-1.98.42-2.19,1.89-.08.67-.23,1.3-.48,1.83.82.95,1.76,1.68,2.54,1.68.38,0,.84-.21,1.37-.74l.36.36c-.59.8-1.43,1.22-2.12,1.22-1.13,0-1.98-.61-2.79-1.41-.71.88-1.74,1.41-3.13,1.41-2,0-4.14-1.16-4.14-3.68Zm6.77,1.74c-1.51-1.6-2.88-3.09-3.85-4.45-.78.67-1.41,1.47-1.41,2.88s1.16,2.69,2.79,2.69c1.09,0,1.89-.44,2.46-1.11Zm-.36-8.97c0-.92-.71-1.6-1.66-1.6-1.34,0-2,1.05-2,1.87,0,.97.29,1.83.82,2.77,1.47-.84,2.84-1.62,2.84-3.05Z"/>
        <path class="cls-1" d="m147.41,149.69c0,2.1.27,2.46,2.02,2.46v.44h-4.79v-.44c1.74,0,2-.36,2-2.46v-6.83c0-2.1-.25-2.44-2-2.44v-.44h3.45l4.45,10.23,4.43-10.23h3.42v.44c-1.77,0-2.02.34-2.02,2.44v6.83c0,2.1.25,2.46,2.02,2.46v.44h-5.67v-.44c1.74,0,2-.36,2-2.46v-7.17l-4.5,10.42h-.27l-4.54-10.46v7.21Z"/>
        <path class="cls-1" d="m161.97,152.15c1.74,0,2-.36,2-2.46v-6.83c0-2.1-.25-2.44-2-2.44v-.44h5.67v.44c-1.74,0-2,.34-2,2.44v6.83c0,2.1.25,2.46,2,2.46v.44h-5.67v-.44Z"/>
        <path class="cls-1" d="m169.23,152.15c1.74,0,2-.36,2-2.46v-6.83c0-2.1-.25-2.44-2-2.44v-.44h5.67v.44c-1.74,0-2,.34-2,2.44v2.65h7.12v-2.65c0-2.1-.27-2.44-2.02-2.44v-.44h5.72v.44c-1.77,0-2.02.34-2.02,2.44v6.83c0,2.1.25,2.46,2.02,2.46v.44h-5.72v-.44c1.74,0,2.02-.36,2.02-2.46v-3.4h-7.12v3.4c0,2.1.25,2.46,2,2.46v.44h-5.67v-.44Z"/>
        <path class="cls-1" d="m185.64,146.29c0-3.66,3.15-6.66,7.02-6.66s7,3,7,6.66-3.15,6.66-7,6.66-7.02-3-7.02-6.66Zm12.02,0c0-2.61-1.39-5.84-5-5.84s-5.02,3.24-5.02,5.84,1.39,5.82,5.02,5.82,5-3.21,5-5.82Z"/>
      </g>
    </g>
  </g>
</svg>