<?xml version="1.0" encoding="UTF-8"?>
<svg id="_レイヤー_2" data-name="レイヤー 2" xmlns="http://www.w3.org/2000/svg" viewBox="0 0 220 74.01">
  <defs>
    <style>
      .cls-1, .cls-2, .cls-3, .cls-4, .cls-5, .cls-6 {
        stroke-width: 0px;
      }

      .cls-1, .cls-4 {
        fill: #fff;
      }

      .cls-2, .cls-3 {
        fill: #595249;
      }

      .cls-2, .cls-4 {
        fill-rule: evenodd;
      }

      .cls-5 {
        fill: #f4eee6;
      }

      .cls-6 {
        fill: #ef91a9;
      }
    </style>
  </defs>
  <g id="_トップ画面" data-name="トップ画面">
    <g>
      <g>
        <path class="cls-3" d="m85.84,35.25c.09.23.36.34.59.25h0c.23-.09.35-.36.25-.59l-3.52-8.82c-.09-.23-.36-.35-.59-.25h0c-.23.09-.34.36-.25.59l3.52,8.82Z"/>
        <path class="cls-3" d="m78.2,33.18c.05.12.18.17.29.13l5.71-2.28c.12-.05.17-.18.13-.29h0c-.05-.12-.18-.17-.29-.13l-5.71,2.28c-.12.05-.17.18-.13.29h0Z"/>
      </g>
      <path class="cls-3" d="m103.39,28.56s-8.82,2.57-10.45,2.65c-1.63.09-7.26-1.28-7.26-1.28l-.75,1.15,5.84,1.55s8.14-.49,8.28-.62c.14-.13,4.34-3.45,4.34-3.45Z"/>
      <path class="cls-3" d="m110.44,30.49h8.45c.75,0,1.36.61,1.36,1.36v1.3c0,.75-.61,1.36-1.36,1.36h-8.45c-.75,0-1.36-.61-1.36-1.36v-1.3c0-.75.61-1.36,1.36-1.36Z" transform="translate(52.43 134.14) rotate(-74.35)"/>
      <path class="cls-3" d="m100.61,27.93s-6.95,2.92-8.57,3.06c-1.63.14-7.03-1.74-7.03-1.74l-.6,1.66s5.1,1.94,7.02,2.18c1.91.24,7.93-.3,8.06-.5.14-.2,1.13-4.65,1.13-4.65Z"/>
      <path class="cls-3" d="m105.4,35.57c-.2.72.22,1.47.94,1.67l1.25.35c.72.2,1.47-.22,1.67-.94l2.28-8.13c.2-.72-.22-1.47-.94-1.67l-1.25-.35c-.72-.2-1.47.22-1.67.94l-2.28,8.13Z"/>
      <g>
        <g>
          <path class="cls-2" d="m97.89,16.09s-.37,2.15-.24,2.89c.13.74-.33,1.36-.49,1.83-.15.43.8.35.8.35,0,0,.47,1.33.47,1.92s-.02,1.41,1.07,1.16c1.09-.25,1.36-.03,1.36-.03l-.09,1.69s-3.54,3.8-4.07,8.79c-.5,4.69.88,11.04.88,11.04l9.38-2.39s2.56-12.25,1.33-14.39c-1.23-2.14-2.53-2.93-2.9-3.64-.38-.71-.89-1.53-.89-1.53h-.11s-.28-1.78.51-3.07c.79-1.3,2.62-4.69-.24-5.94-2.86-1.25-4.9-1.18-5.77-.67-.87.51-.99,2.01-.99,2.01Z"/>
          <path class="cls-3" d="m112.95,15.8s-2.19-.4-3.48-.08c-1.3.32-2.11,1.7-1.94,3,.16,1.3-1.3,2.43-1.3,2.43l.16.57s.08,1.38,0,2.03c-.08.65-.08,1.3.57,1.3s2.19-.49,2.27.32c.08.81.49,3.56-.16,4.46-.65.89-2.35,2.51-3.24,3.08-.89.57-1.54,2.02-1.46,3,.1,1.18,1.28,2.26,1.77,3.43.44,1.06.15,3.88.15,3.88l5.62-3.98s2.92-4.13,1.7-6.32c-1.22-2.19-2.19-6.32-1.46-7.53.73-1.21,1.67-1.23,2.11-2.27.32-.79,1.07-3.1,1.07-3.1,0,0,3.57,1.33,3.81-1.6.42-5.2-4.64-3-4.64-3l-1.54.4Z"/>
        </g>
        <path class="cls-1" d="m113.96,16.72s-.21,5.13,7.21,2.96c7.48-2.19,26.45-10.66,35.87-15.24,29.21-14.22,49.35,10.27,49.35,10.27,0,0-15.12,7.49,13.62,19.56,0,0-11.59,6.24-24.18,2.59-17.22-5-20.92-13.1-33.69-16.71-14.74-4.17-42.57.95-45.3.5-2.95-.49-2.87-3.92-2.87-3.92Z"/>
        <path class="cls-4" d="m100.27,26.48l.31-.71c1.02-.78,3.91-2,3.91-2,0,0,.22.36.48.8-.2.1-.65.32-1.58.7-.83.34-2.19.86-3.13,1.21Z"/>
        <path class="cls-1" d="m109.28,28.56c0,.12.09.21.21.21s.21-.09.21-.21c0-.12-.09-.21-.21-.21s-.21.09-.21.21Z"/>
        <path class="cls-1" d="m109.68,28.69c0,.11.09.21.21.21s.21-.09.21-.21c0-.12-.09-.21-.21-.21s-.21.09-.21.21Z"/>
        <path class="cls-1" d="m110.09,28.75c0,.11.09.21.21.21s.21-.09.21-.21c0-.12-.09-.21-.21-.21s-.21.09-.21.21Z"/>
        <path class="cls-1" d="m110.51,28.79c0,.12.09.21.21.21s.21-.09.21-.21c0-.12-.09-.21-.21-.21s-.21.09-.21.21Z"/>
        <path class="cls-1" d="m110.92,28.79c0,.12.09.21.21.21s.21-.09.21-.21c0-.12-.09-.21-.21-.21s-.21.09-.21.21Z"/>
        <path class="cls-1" d="m111.35,28.76c0,.12.09.21.21.21s.21-.09.21-.21c0-.12-.09-.21-.21-.21s-.21.09-.21.21Z"/>
        <path class="cls-1" d="m111.76,28.7c0,.12.09.21.21.21s.21-.09.21-.21c0-.12-.09-.21-.21-.21s-.21.09-.21.21Z"/>
      </g>
      <path class="cls-3" d="m55.04,63.2s-12.12-6.6-20.26-6.6c-8.14,0-16.01,5.52-18.27,5.43-2.26-.09-2.55-19.74-2.55-19.74,0,0,43.69-2.8,43.69-2.53,0,.27-2.6,23.44-2.6,23.44Z"/>
      <path class="cls-3" d="m156.58,61.59s-12.44-7.16-20.58-7.16-15.56,8.41-17.82,8.32c-2.26-.09-2.71-17.28-2.71-17.28l43.69-2.53-2.58,18.65Z"/>
      <path class="cls-3" d="m20.04,59.02c0,8.28,6.71,14.99,14.99,14.99s14.99-6.71,14.99-14.99-6.71-14.99-14.99-14.99-14.99,6.71-14.99,14.99Z"/>
      <path class="cls-1" d="m21.46,59.02c0,7.49,6.07,13.57,13.57,13.57,7.49,0,13.57-6.08,13.57-13.57,0-7.5-6.08-13.57-13.57-13.57-7.49,0-13.57,6.07-13.57,13.57Z"/>
      <path class="cls-3" d="m25.96,59.02c0,5.01,4.06,9.07,9.07,9.07s9.07-4.06,9.07-9.07-4.06-9.07-9.07-9.07-9.07,4.06-9.07,9.07Z"/>
      <path class="cls-5" d="m34.27,59.02c0,.42.34.76.76.76s.76-.34.76-.76c0-.42-.34-.76-.76-.76s-.76.34-.76.76Z"/>
      <path class="cls-3" d="m122.27,59.02c0,8.28,6.71,14.99,14.99,14.99,8.28,0,14.99-6.71,14.99-14.99,0-8.28-6.71-14.99-14.99-14.99s-14.99,6.71-14.99,14.99Z"/>
      <path class="cls-1" d="m123.7,59.02c0,7.49,6.08,13.57,13.57,13.57s13.57-6.08,13.57-13.57c0-7.5-6.07-13.57-13.57-13.57s-13.57,6.07-13.57,13.57Z"/>
      <path class="cls-3" d="m128.2,59.02c0,5.01,4.06,9.07,9.07,9.07s9.07-4.06,9.07-9.07-4.06-9.07-9.07-9.07-9.07,4.06-9.07,9.07Z"/>
      <path class="cls-6" d="m.01,57.76c.11-.58.84-.53.84-.53l.36-1.36c.36-1.36,3.53-1.72,3.53-2.44,0-.72,1.54-1.27,1.54-1.27l.63-2.85s-.81-2.44,1.22-6.78c2.04-4.34,4.34-3.8,4.34-3.8l1.09-.95c1.08-.95,4.07-2.58,9.09-3.53,5.02-.95,11.4-1.22,18.18-2.31,6.78-1.09,24.83-3.39,24.83-3.39,0,0,11.76-11.81,12.39-12.53.63-.72,1.54-1.09,3.12-.09,1.58.99,5.11,2.31,3.71,4.16-1.4,1.85-6.38,8.59-7.37,10.09-.99,1.49-1.36,1.63-.23,1.67l40.07-.56,26.13-10.76.22,2.88,2.43,1.07-.15,2.83,1.77,3.39s-.07.01-.15.02c5.45,1.94,12.73,4.83,15.97,6.87,4.89,3.08,7.69,10.22,7.69,10.22,0,0,.45.09,1.09,0,.63-.09,1.45.45,1.81,1.36.36.91-.45,1.9-.45,1.9l.72,1.63s1.54.27,2.62,1.18c1.08.9,1.27,2.62,1.27,2.62,0,0,.87.01.84.88-.03.83-.93,1.02-.93,1.02l-.63,1.36c-.63,1.36-5.79,1.81-7.33,1.81s-8.96.18-11.85.18-2.17,0-3.53-4.61c-1.36-4.61-5.7-8.78-19.18-8.78s-14.84,7.6-15.29,10.13c-.45,2.53-.72,4.89-3.98,4.89s-57.17-.09-61.42-.18c-4.25-.09-2.26-20.17-19.27-20.17-17.01,0-19.27,19-19.27,19,0,0-3.07-.12-10.13-.63-6.71-.49-5.79-2.83-5.79-2.83,0,0-.68-.17-.57-.8Z"/>
      <path class="cls-5" d="m136.5,59.02c0,.42.34.76.76.76s.76-.34.76-.76-.34-.76-.76-.76-.76.34-.76.76Z"/>
      <path class="cls-5" d="m79.69,23.23c-2.34,3.41-4.29,7.6-7.21,7.6s-5.68-1.25-6.95-2.47c1.42-1.42,8.85-8.89,11.36-11.46,0,0,.34-.12.46-.11,1,.09,2.63,1.17,3.41,2.14.78.97,1.27.88-1.07,4.29Z"/>
      <path class="cls-3" d="m75.36,31.84l.54.68,12.66-.81s.04-10.95.04-11.35-.04-.5-.49-.5h-3.11s-9.64,11.98-9.64,11.98Zm5.14-2.88c.7-.78,5.87-7.98,6.33-8.06.47-.08,1.1-.23,1.1-.23l-.16,11.03s-5.71-.08-6.96-.55c-1.25-.47-1.02-1.41-.31-2.19Z"/>
      <path class="cls-3" d="m84.97,29.41s-.99-.43-1.4-.38c-.41.05-.26.66.02,1.51.29.85,1.26.35,1.26.35l.12-1.48Z"/>
      <path class="cls-3" d="m85.7,30.84s-.74-.47-1.15-.43c-.41.04-.33.57-.04,1.31.29.74,1.06.41,1.06.41l.12-1.29Z"/>
    </g>
  </g>
</svg>